<?xml version="1.0" encoding="iso-8859-1"?>
<!-- Generator: Adobe Illustrator 19.0.0, SVG Export Plug-In . SVG Version: 6.00 Build 0)  -->
<svg version="1.1" id="Capa_1" xmlns="http://www.w3.org/2000/svg" xmlns:xlink="http://www.w3.org/1999/xlink" x="0px" y="0px"
	 viewBox="0 0 512 512" style="enable-background:new 0 0 512 512;" xml:space="preserve">
<linearGradient id="SVGID_1_" gradientUnits="userSpaceOnUse" x1="0" y1="258" x2="512" y2="258" gradientTransform="matrix(1 0 0 -1 0 514)">
	<stop  offset="0" style="stop-color:#80D8FF"/>
	<stop  offset="0.16" style="stop-color:#88D1FF"/>
	<stop  offset="0.413" style="stop-color:#9FBEFE"/>
	<stop  offset="0.725" style="stop-color:#C4A0FD"/>
	<stop  offset="1" style="stop-color:#EA80FC"/>
</linearGradient>
<path style="fill:url(#SVGID_1_);" d="M394.074,423H117.925C52.901,423,0,370.065,0,305c0-42.817,22.955-81.177,58.521-101.951
	C81.078,135.472,144.955,89,216.83,89c65.781,0,125.174,38.84,152.007,98h25.237C459.099,187,512,239.935,512,305
	S459.099,423,394.074,423z M216.83,129c-56.889,0-107.186,38.284-122.313,93.1c-1.53,5.543-5.371,10.159-10.544,12.671
	C56.85,247.94,40,274.85,40,305c0,43.009,34.957,78,77.925,78h276.149C437.043,383,472,348.009,472,305s-34.957-78-77.926-78
	h-38.727c-8.478,0-16.034-5.345-18.858-13.339C318.603,163.023,270.516,129,216.83,129z"/>
<g>
</g>
<g>
</g>
<g>
</g>
<g>
</g>
<g>
</g>
<g>
</g>
<g>
</g>
<g>
</g>
<g>
</g>
<g>
</g>
<g>
</g>
<g>
</g>
<g>
</g>
<g>
</g>
<g>
</g>
</svg>
